<svg width="72" height="72" viewBox="0 0 72 72" fill="none" xmlns="http://www.w3.org/2000/svg">
<path d="M35.5556 0C28.5233 0 21.649 2.0853 15.802 5.99219C9.95488 9.89909 5.39764 15.4521 2.70652 21.949C0.0154055 28.446 -0.688713 35.595 0.683206 42.4921C2.05513 49.3892 5.44146 55.7246 10.414 60.6971C15.3865 65.6697 21.7219 69.056 28.619 70.4279C35.5161 71.7998 42.6652 71.0957 49.1621 68.4046C55.659 65.7135 61.212 61.1562 65.1189 55.3092C69.0258 49.4621 71.1111 42.5878 71.1111 35.5556C71.1111 26.1256 67.3651 17.0819 60.6972 10.414C54.0292 3.74602 44.9855 0 35.5556 0V0ZM53.3334 34.6C52.7395 35.1809 51.9418 35.5062 51.1111 35.5062C50.2804 35.5062 49.4827 35.1809 48.8889 34.6L38.6667 24.4444V55.8667C38.6667 56.6918 38.3389 57.4831 37.7555 58.0666C37.172 58.65 36.3807 58.9778 35.5556 58.9778C34.7305 58.9778 33.9391 58.65 33.3557 58.0666C32.7722 57.4831 32.4445 56.6918 32.4445 55.8667V24.7556L22.6 34.6C22.0106 35.1894 21.2113 35.5205 20.3778 35.5205C19.5443 35.5205 18.7449 35.1894 18.1556 34.6C17.5662 34.0106 17.2351 33.2113 17.2351 32.3778C17.2351 31.5443 17.5662 30.7449 18.1556 30.1556L35.7334 12.6667L53.3334 30.2C53.6223 30.4889 53.8515 30.8319 54.0078 31.2094C54.1642 31.5868 54.2447 31.9914 54.2447 32.4C54.2447 32.8086 54.1642 33.2132 54.0078 33.5906C53.8515 33.9681 53.6223 34.3111 53.3334 34.6Z" fill="black"/>
</svg>
