<svg width="10" height="12" viewBox="0 0 10 12" fill="none" xmlns="http://www.w3.org/2000/svg">
<path d="M5 7.58672e-09C5.48 -4.3145e-05 5.94173 0.184001 6.29009 0.514221C6.63845 0.84444 6.8469 1.29568 6.8725 1.775L6.875 1.875H9.625C9.72001 1.87503 9.81147 1.91112 9.8809 1.97599C9.95032 2.04085 9.99254 2.12965 9.99901 2.22444C10.0055 2.31923 9.97574 2.41295 9.91578 2.48665C9.85583 2.56035 9.77012 2.60855 9.676 2.6215L9.625 2.625H9.0955L8.4855 10.1515C8.44744 10.621 8.23403 11.059 7.88772 11.3784C7.54141 11.6977 7.08758 11.875 6.6165 11.875H3.3835C2.91242 11.875 2.45859 11.6977 2.11228 11.3784C1.76597 11.059 1.55256 10.621 1.5145 10.1515L0.904 2.625H0.375C0.284381 2.625 0.196829 2.59218 0.128535 2.53262C0.0602405 2.47305 0.0158241 2.39078 0.00349998 2.301L0 2.25C3.82145e-06 2.15938 0.0328214 2.07183 0.0923836 2.00353C0.151946 1.93524 0.234223 1.89082 0.324 1.8785L0.375 1.875H3.125C3.125 1.37772 3.32254 0.900806 3.67417 0.549175C4.02581 0.197544 4.50272 7.58672e-09 5 7.58672e-09V7.58672e-09ZM8.3435 2.625H1.6565L2.262 10.091C2.28486 10.3727 2.41293 10.6355 2.62074 10.8271C2.82854 11.0187 3.10085 11.125 3.3835 11.125H6.6165C6.89915 11.125 7.17146 11.0187 7.37926 10.8271C7.58707 10.6355 7.71514 10.3727 7.738 10.091L8.343 2.625H8.3435ZM3.875 4.5C3.96562 4.5 4.05317 4.53282 4.12147 4.59238C4.18976 4.65195 4.23418 4.73422 4.2465 4.824L4.25 4.875V8.875C4.24997 8.97001 4.21388 9.06147 4.14901 9.1309C4.08415 9.20032 3.99535 9.24254 3.90056 9.24901C3.80577 9.25549 3.71205 9.22574 3.63835 9.16578C3.56465 9.10583 3.51645 9.02012 3.5035 8.926L3.5 8.875V4.875C3.5 4.77554 3.53951 4.68016 3.60984 4.60984C3.68016 4.53951 3.77554 4.5 3.875 4.5V4.5ZM6.125 4.5C6.21562 4.5 6.30317 4.53282 6.37147 4.59238C6.43976 4.65195 6.48418 4.73422 6.4965 4.824L6.5 4.875V8.875C6.49997 8.97001 6.46388 9.06147 6.39901 9.1309C6.33415 9.20032 6.24535 9.24254 6.15056 9.24901C6.05577 9.25549 5.96205 9.22574 5.88835 9.16578C5.81465 9.10583 5.76645 9.02012 5.7535 8.926L5.75 8.875V4.875C5.75 4.77554 5.78951 4.68016 5.85984 4.60984C5.93016 4.53951 6.02554 4.5 6.125 4.5ZM5 0.75C4.71494 0.749965 4.44049 0.858148 4.23212 1.05268C4.02376 1.24722 3.89701 1.51361 3.8775 1.798L3.875 1.875H6.125L6.1225 1.798C6.10299 1.51361 5.97624 1.24722 5.76788 1.05268C5.55951 0.858148 5.28506 0.749965 5 0.75V0.75Z" fill="white"/>
</svg>
